<svg width="22" height="17" viewBox="0 0 22 17" fill="none" xmlns="http://www.w3.org/2000/svg">
<g clip-path="url(#clip0_1_7122)">
<path d="M5.44496 3.61176C6.89855 2.53364 8.7623 1.7127 11.0001 1.7127C13.6514 1.7127 15.7743 2.86395 17.3198 4.23145C18.8554 5.5877 19.8825 7.18458 20.3681 8.32833C20.4764 8.5752 20.4764 8.8502 20.3681 9.09708C19.9284 10.1065 19.0457 11.5283 17.7464 12.7971L21.1982 15.3721C21.5395 15.6283 21.6018 16.1002 21.3328 16.4252C21.0637 16.7502 20.5682 16.8096 20.227 16.5533L0.80186 2.05301C0.45956 1.79739 0.399546 1.32614 0.667854 1.00008C0.936194 0.674077 1.43101 0.616921 1.77357 0.872452L5.44496 3.61176ZM6.72793 4.57208L8.2373 5.69708C8.97558 5.08458 9.94355 4.7127 11.0001 4.7127C13.32 4.7127 15.2001 6.50333 15.2001 8.7127C15.2001 9.3752 15.0328 9.99708 14.7342 10.5471L16.4995 11.8658C17.5987 10.8002 18.4125 9.55958 18.8292 8.7127C18.3534 7.74708 17.5101 6.44708 16.2468 5.32833C14.8982 4.1377 13.1395 3.18458 11.0001 3.18458C9.34308 3.18458 7.88621 3.76676 6.72793 4.57208ZM13.4578 9.59395C13.5661 9.31895 13.6251 9.02208 13.6251 8.68458C13.6251 7.33145 12.4504 6.18458 11.0001 6.18458C10.9771 6.18458 10.9575 6.2127 10.905 6.2127C10.9771 6.37208 11.0001 6.54083 11.0001 6.68458C11.0001 7.03145 10.9214 7.33145 10.7836 7.59708L13.4578 9.59395ZM13.7662 13.6658L15.1411 14.6971C13.95 15.3096 12.5686 15.7127 11.0001 15.7127C8.34887 15.7127 6.2259 14.5627 4.68043 13.194C3.14546 11.8096 2.11908 10.2127 1.63083 9.09708C1.52321 8.8502 1.52321 8.5752 1.63083 8.32833C1.94387 7.6127 2.47838 6.6877 3.22651 5.75958L4.46387 6.6877C3.85027 7.41583 3.44537 8.1377 3.17269 8.68458C3.61796 9.6502 4.49012 10.9783 5.7534 12.0971C7.10199 13.2877 8.86074 14.2127 11.0001 14.2127C12.0075 14.2127 12.9295 14.0065 13.7662 13.6658ZM6.80012 8.68458C6.80012 8.62208 6.8034 8.53458 6.80996 8.44708L8.65074 9.82833C8.99527 10.4877 9.6384 10.9815 10.4095 11.1221L12.2536 12.5315C11.8565 12.6221 11.4365 12.7127 10.9706 12.7127C8.68027 12.7127 6.77058 10.9221 6.77058 8.68458H6.80012Z" fill="#828282"/>
</g>
<defs>
<clipPath id="clip0_1_7122">
<rect width="21" height="16" fill="white" transform="translate(0.5 0.712524)"/>
</clipPath>
</defs>
</svg>
