<svg width="20" height="20" viewBox="0 0 20 20" fill="none" xmlns="http://www.w3.org/2000/svg">
<path d="M18.3331 14.6027L18.3331 18.058L7.20592 18.058L7.20592 14.6027L18.3331 14.6027ZM5.68806 16.3322C5.68806 17.4371 4.77288 18.3333 3.66797 18.3333C3.13724 18.3333 2.62825 18.1225 2.25297 17.7472C1.87769 17.3719 1.66685 16.8629 1.66685 16.3322C1.66685 15.8015 1.87769 15.2925 2.25297 14.9172C2.62825 14.5419 3.13724 14.3311 3.66797 14.3311C4.77288 14.3311 5.68806 15.2277 5.68806 16.3322ZM18.3331 1.67036L18.3331 5.11828L12.9165 5.11828C11.6256 5.11828 9.97005 5.14432 9.97005 6.91479C9.97005 8.71129 11.3726 8.98659 12.8235 8.98659L18.3331 8.98658L18.3331 12.4382L7.20592 12.4382L7.20592 9.12423L8.72377 9.12423L8.72377 9.07587C7.84952 8.61456 6.9269 7.4877 6.9269 5.80653C6.9269 2.3095 9.22973 1.66664 12.2208 1.66664L18.3331 1.66664L18.3331 1.67036Z" fill="white"/>
</svg>
