<svg width="24" height="25" viewBox="0 0 24 25" fill="none" xmlns="http://www.w3.org/2000/svg">
<path d="M2.625 7.5H18.875C19.2203 7.5 19.5 7.22031 19.5 6.875V4.375C19.5 4.02969 19.2203 3.75 18.875 3.75H2.625C2.27969 3.75 2 4.02969 2 4.375V6.875C2 7.22031 2.27969 7.5 2.625 7.5ZM21.375 10.625H5.125C4.77969 10.625 4.5 10.9047 4.5 11.25V13.75C4.5 14.0953 4.77969 14.375 5.125 14.375H21.375C21.7203 14.375 22 14.0953 22 13.75V11.25C22 10.9047 21.7203 10.625 21.375 10.625ZM18.875 17.5H2.625C2.27969 17.5 2 17.7797 2 18.125V20.625C2 20.9703 2.27969 21.25 2.625 21.25H18.875C19.2203 21.25 19.5 20.9703 19.5 20.625V18.125C19.5 17.7797 19.2203 17.5 18.875 17.5Z" fill="white"/>
</svg>
