<svg width="20" height="20" viewBox="0 0 20 20" fill="none" xmlns="http://www.w3.org/2000/svg">
<path d="M17.3014 5.12339C17.7734 5.5661 18.3333 6.751 18.3333 8.29396C18.3333 12.2263 15.4427 13.0791 13.7565 13.0791L9.06901 13.0791L9.06901 14.6253C9.06901 14.8044 8.92252 14.9509 8.74349 14.9509L6.52995 14.9509C6.29557 14.9509 6.08724 14.8044 6.00911 14.583C5.29948 12.5648 3.53515 11.93 2.19726 11.8389C1.83919 11.8128 1.66666 11.6273 1.66666 11.3148L1.66666 9.00686C1.66666 8.82782 1.81315 8.68133 1.99218 8.68133L5.74218 8.68133L5.74218 5.97951C5.74218 5.80047 5.88541 5.65399 6.06445 5.65399L8.72396 5.65399C8.90299 5.65399 9.04948 5.80047 9.04948 5.97951L9.04948 8.69436L13.3854 8.69435C14.4987 8.69435 15.1302 7.92287 14.5508 6.48081C14.4889 6.32456 14.4466 6.18784 14.4792 6.0674C14.5085 5.95347 14.5898 5.8786 14.7363 5.82652L16.8294 5.11037C16.9922 5.05178 17.1745 5.00295 17.3014 5.12339Z" fill="white"/>
</svg>
