<?xml version="1.0" encoding="utf-8"?>
<!-- Generator: Adobe Illustrator 27.3.1, SVG Export Plug-In . SVG Version: 6.00 Build 0)  -->
<svg version="1.1" id="圖層_1" xmlns="http://www.w3.org/2000/svg" xmlns:xlink="http://www.w3.org/1999/xlink" x="0px" y="0px"
	 viewBox="0 0 19 21" style="enable-background:new 0 0 19 21;" xml:space="preserve">
<style type="text/css">
	.st0{clip-path:url(#SVGID_00000124150086590219852620000000072286989970685880_);}
	.st1{fill:#7696E8;}
</style>
<g>
	<defs>
		<rect id="SVGID_1_" x="0.5" y="0.5" width="18" height="20"/>
	</defs>
	<clipPath id="SVGID_00000066500217234284985650000003532327397653615233_">
		<use xlink:href="#SVGID_1_"  style="overflow:visible;"/>
	</clipPath>
	<g style="clip-path:url(#SVGID_00000066500217234284985650000003532327397653615233_);">
		<path class="st1" d="M11.4,12.4H7.6c-3.9,0-7.1,3.1-7.1,6.9c0,0.7,0.6,1.2,1.3,1.2h15.4c0.7,0,1.3-0.6,1.3-1.2
			C18.5,15.5,15.3,12.4,11.4,12.4z M2.5,18.6c0.3-2.5,2.5-4.4,5.1-4.4h3.9c2.6,0,4.8,1.9,5.1,4.4H2.5z M9.5,10.5
			c2.8,0,5.1-2.2,5.1-5c0-2.8-2.3-5-5.1-5c-2.8,0-5.1,2.2-5.1,5C4.4,8.3,6.7,10.5,9.5,10.5z M9.5,2.4c1.8,0,3.2,1.4,3.2,3.1
			c0,1.7-1.4,3.1-3.2,3.1c-1.8,0-3.2-1.4-3.2-3.1C6.3,3.8,7.7,2.4,9.5,2.4z"/>
	</g>
</g>
</svg>
